<?xml version="1.0" standalone="no"?><!DOCTYPE svg PUBLIC "-//W3C//DTD SVG 1.1//EN" "http://www.w3.org/Graphics/SVG/1.1/DTD/svg11.dtd"><svg t="1780975343390" class="icon" viewBox="0 0 1024 1024" version="1.1" xmlns="http://www.w3.org/2000/svg" p-id="1985" xmlns:xlink="http://www.w3.org/1999/xlink" width="200" height="200"><path d="M495.15975111 619.45742222l5.8368 3.53848889c-9.37984 15.47832889-14.02311111 28.90638222-14.02766222 40.22954667l-6.82666667-0.00227556c0.00455111-12.73856 5.04263111-27.30894222 15.01752889-43.76576z" fill="#FC6275" p-id="1986"></path><path d="M523.35957333 628.65635555l4.02318222-5.51480888c17.00408889 12.40177778 25.63185778 28.14179555 25.63185778 46.96064h-6.82666666c0-16.55466667-7.5264-30.28423111-22.82837334-41.44469334z" fill="#F13D53" p-id="1987"></path><path d="M540.68565333 669.01333333c-6.19747555 45.49859555-11.10698667 79.91296-14.72967111 103.24423112-5.43175111 34.99690667-25.90492445 129.57582222 23.77955556 181.2115911 12.97408 13.48266667 24.73528889 28.2624 35.71598222 27.33056 12.60544-1.06951111 53.65532445-27.34193778 28.93824-33.6839111-24.71594667-6.34197333-69.63996445-45.57141333-69.63996445-111.34634667 0-43.84881778 3.65681778-100.19271111 10.97159112-169.03168l-15.03573334 2.27555555z" fill="#FC6275" p-id="1988"></path><path d="M476.29994667 679.25333333c-15.31221333 51.26371555-24.77852445 88.56120889-28.40007112 111.89248-5.43288889 34.99690667-15.40778667 98.44963555 12.55196445 169.27402667 7.84384 19.87128889 25.31441778 45.19480889 35.19260445 47.65127111 9.87818667 2.45646222 45.93777778-20.89756445 37.1040711-23.7568-8.83370667-2.86151111-67.03445333-23.89333333-67.03445333-137.35822222 0-75.64401778 6.75612445-131.54417778 20.27064889-167.70275556h-9.68476444z" fill="#FC6275" p-id="1989"></path><path d="M532.48 653.08444445m11.37777778 0l5.68888889 0q11.37777778 0 11.37777778 11.37777777l0 17.06666667q0 11.37777778-11.37777778 11.37777778l-5.68888889 0q-11.37777778 0-11.37777778-11.37777778l0-17.06666667q0-11.37777778 11.37777778-11.37777777Z" fill="#FEE97D" p-id="1990"></path><path d="M469.51380082 650.80929849m11.31544917 1.18930204l5.65772516 0.59465046q11.31544917 1.18930205 10.12614712 12.50475122l-1.78395249 16.97317318q-1.18930205 11.31544917-12.50475008 10.12614714l-5.65772516-0.59465046q-11.31544917-1.18930205-10.12614713-12.50475122l1.7839525-16.97317319q1.18930205-11.31544917 12.50475008-10.12614713Z" fill="#FEE97D" p-id="1991"></path><path d="M198.62755555 456.99185778l312.58396445 153.03793777 316.19868445-153.08003555-314.37027556-314.37027555-314.41351111 314.41237333zM183.18222222 459.56323555L513.03992889 129.70666667l329.85770666 329.85770666-331.70773333 160.58936889L183.18222222 459.56437333z" fill="#FC6275" p-id="1992"></path><path d="M742.61276445 507.92675555c-38.60366222-83.21706667-121.50784-142.22222222-219.46026667-145.64352-104.87239111-3.66250667-196.98346667 57.44071111-237.82968889 147.40366223L52.59946667 396.17991111c58.95168-216.90368 263.36142222-325.95057778 462.93447111-318.98168889 198.42844445 6.92906667 393.39576889 112.95402667 450.53952 340.44359111l-223.46069333 90.28380445z" fill="#FC6275" p-id="1993"></path><path d="M800.99555555 405.89312l-71.1623111-93.01788445L626.28408889 253.72444445l-76.3904-24.56917334-45.45080889-82.31367111h-10.97386667l37.06197334 82.31367111-166.87786667 30.84970667-166.55928889 83.19089777-7.11224889 22.57806223 173.6704-89.40657778 166.87900445-32.29582222c42.27868445 12.18104889 74.19562667 22.94556445 95.75196444 32.29582222 21.55633778 9.34912 51.27168 25.31555555 89.14375111 47.89930667l70.52401778 89.30190222L800.99555555 405.89312z" fill="#7A4444" p-id="1994"></path><path d="M277.75658667 295.8336L261.74577778 294.4C246.72597333 293.05742222 235.63719111 279.79093333 236.98090667 264.77112889a27.30666667 27.30666667 0 0 1 0.22528-1.82044444l1.1264-7.14638223c2.34951111-14.89692445 16.33052445-25.06865778 31.22744888-22.72028444a27.30666667 27.30666667 0 0 1 6.59911112 1.91601777l14.90488888 6.45575112-2.24369777-13.33248C286.18069333 212.44586667 296.74951111 197.59786667 312.42467555 194.95822222a28.78350222 28.78350222 0 0 1 4.77866667-0.39936C333.55320889 194.56 346.80604445 207.81397333 346.80604445 224.16270222c0 1.37216-0.09557333 2.74318222-0.28558223 4.10282667l-1.64295111 11.73390222 18.56056889-6.54791111a27.27594667 27.27594667 0 0 1 4.62506667-1.18784c14.86279111-2.4576 28.90296889 7.60035555 31.36056888 22.46200889l0.48128 2.91384889a27.30666667 27.30666667 0 0 1 0.26965334 2.16291555c1.26520889 15.02890667-9.89297778 28.23623111-24.92074667 29.50144l-4.56362667 0.38343112 7.8848 6.13148444a26.16888889 26.16888889 0 0 1 2.05255112 1.77379556c10.43000889 10.00448 10.77475555 26.56938667 0.77141333 37.00053333l-6.18951111 6.4512a26.16888889 26.16888889 0 0 1-4.88106667 3.9936c-12.20835555 7.73347555-28.37617778 4.10510222-36.11079111-8.10325333l-9.37984-14.80704-12.71352889 21.10805333c-6.80846222 11.30382222-21.49262222 14.94812445-32.79530667 8.13966222a23.89333333 23.89333333 0 0 1-1.36533333-0.88746667l-9.60284444-6.71630222c-10.81457778-7.56280889-13.44853333-22.45973333-5.88686223-33.27317333a23.89333333 23.89333333 0 0 1 3.5282489-4.00497778l11.75324444-10.66097778z" fill="#FDEFA7" p-id="1995"></path><path d="M277.75658667 295.8336L261.74577778 294.4C246.72597333 293.05742222 235.63719111 279.79093333 236.98090667 264.77112889a27.30666667 27.30666667 0 0 1 0.22528-1.82044444l1.1264-7.14638223c2.34951111-14.89692445 16.33052445-25.06865778 31.22744888-22.72028444a27.30666667 27.30666667 0 0 1 6.59911112 1.91601777l14.90488888 6.45575112-2.24369777-13.33248C286.18069333 212.44586667 296.74951111 197.59786667 312.42467555 194.95822222a28.78350222 28.78350222 0 0 1 4.77866667-0.39936C333.55320889 194.56 346.80604445 207.81397333 346.80604445 224.16270222c0 1.37216-0.09557333 2.74318222-0.28558223 4.10282667l-1.64295111 11.73390222 18.56056889-6.54791111a27.27594667 27.27594667 0 0 1 4.62506667-1.18784c14.86279111-2.4576 28.90296889 7.60035555 31.36056888 22.46200889l0.48128 2.91384889a27.30666667 27.30666667 0 0 1 0.26965334 2.16291555c1.26520889 15.02890667-9.89297778 28.23623111-24.92074667 29.50144l-4.56362667 0.38343112 7.8848 6.13148444a26.16888889 26.16888889 0 0 1 2.05255112 1.77379556c10.43000889 10.00448 10.77475555 26.56938667 0.77141333 37.00053333l-6.18951111 6.4512a26.16888889 26.16888889 0 0 1-4.88106667 3.9936c-12.20835555 7.73347555-28.37617778 4.10510222-36.11079111-8.10325333l-9.37984-14.80704-12.71352889 21.10805333c-6.80846222 11.30382222-21.49262222 14.94812445-32.79530667 8.13966222a23.89333333 23.89333333 0 0 1-1.36533333-0.88746667l-9.60284444-6.71630222c-10.81457778-7.56280889-13.44853333-22.45973333-5.88686223-33.27317333a23.89333333 23.89333333 0 0 1 3.5282489-4.00497778l11.75324444-10.66097778z" fill="#FDEFA7" p-id="1996"></path><path d="M319.71555555 276.48m-26.16888888 0a26.16888889 26.16888889 0 1 0 52.33777778 0 26.16888889 26.16888889 0 1 0-52.33777778 0Z" fill="#F23649" p-id="1997"></path><path d="M327.11111111 255.43111111m-3.98222222 0a3.98222222 3.98222222 0 1 0 7.96444444 0 3.98222222 3.98222222 0 1 0-7.96444444 0Z" fill="#FFFFFF" p-id="1998"></path><path d="M320.85333333 276.48m-4.55111111 0a4.55111111 4.55111111 0 1 0 9.10222223 0 4.55111111 4.55111111 0 1 0-9.10222223 0Z" fill="#FFFFFF" p-id="1999"></path><path d="M337.78494919 265.42175118a3.70574222 3.70574222 0 1 0 4.6641994 5.75980431 3.70574222 3.70574222 0 1 0-4.6641994-5.75980431Z" fill="#FFFFFF" p-id="2000"></path><path d="M338.32896398 284.29818425a3.70688 3.70460445 13 1 0-1.66671019 7.2193115 3.70688 3.70460445 13 1 0 1.66671019-7.2193115Z" fill="#FFFFFF" p-id="2001"></path><path d="M324.65495723 296.05522432a3.70460445 3.70688 64 1 0-6.66344334 3.24997803 3.70460445 3.70688 64 1 0 6.66344334-3.24997803Z" fill="#FFFFFF" p-id="2002"></path><path d="M307.97172167 291.89599346a3.70688 3.70460445 26 1 0-6.66344334-3.24997803 3.70688 3.70460445 26 1 0 6.66344334 3.24997803Z" fill="#FFFFFF" p-id="2003"></path><path d="M299.40217287 276.70021575a3.70460445 3.70688 77 1 0-1.66671018-7.2193115 3.70460445 3.70688 77 1 0 1.66671018 7.2193115Z" fill="#FFFFFF" p-id="2004"></path><path d="M306.27305586 260.06774215a3.70574222 3.70574222 0 1 0 4.66419939-5.7598043 3.70574222 3.70574222 0 1 0-4.66419939 5.7598043Z" fill="#FFFFFF" p-id="2005"></path><path d="M630.27427555 279.35630222l-3.76718222-0.31175111C612.5568 277.88629333 602.18823111 265.64039111 603.34535111 251.69123555c0.05347555-0.63715555 0.12970667-1.26976 0.22983111-1.90008888C605.39790222 238.37582222 616.12942222 230.60024889 627.54360889 232.42296889c1.82044445 0.29127111 3.59537778 0.82033778 5.27587556 1.57582222l8.47189333 3.80586667-1.34030223-8.04522667C638.09422222 218.61262222 645.62403555 208.07338667 656.77084445 206.21539555A20.45952 20.45952 0 0 1 660.13184 205.93777778c11.61784889 0 21.03637333 9.41852445 21.03637333 21.03523555 0 0.96597333-0.06712889 1.92967111-0.19911111 2.88654222l-1.06154667 7.6652089 11.9808-4.33834667c1.17191111-0.42439111 2.37795555-0.73955555 3.60675556-0.94435556 11.13088-1.85116445 21.65646222 5.67296 23.50648889 16.80497778 0.10581333 0.63715555 0.18545778 1.28 0.23552 1.92512 0.91249778 11.58030222-7.10314667 21.80437333-18.26702222 23.90129778 0.41415111 0.34702222 0.81806222 0.70769778 1.20832 1.08088889 9.68704 9.27175111 10.02382222 24.63971555 0.75320889 34.32675555a20.88391111 20.88391111 0 0 1-4.12330667 3.33368889c-9.81674667 6.05639111-22.68387555 3.00714667-28.73912889-6.8096l-4.68878222-7.60149333-5.17006222 8.77226667c-6.40796445 10.87488-20.41856 14.49528889-31.29230222 8.08732444a22.85454222 22.85454222 0 0 1-1.64522667-1.06723556c-9.03281778-6.42503111-11.14680889-18.95765333-4.72177778-27.99047111a20.07267555 20.07267555 0 0 1 2.84444445-3.20853333l4.8787911-4.44074667z" fill="#FDEFA7" p-id="2006"></path><path d="M630.27427555 279.35630222l-3.76718222-0.31175111C612.5568 277.88629333 602.18823111 265.64039111 603.34535111 251.69123555c0.05347555-0.63715555 0.12970667-1.26976 0.22983111-1.90008888C605.39790222 238.37582222 616.12942222 230.60024889 627.54360889 232.42296889c1.82044445 0.29127111 3.59537778 0.82033778 5.27587556 1.57582222l8.47189333 3.80586667-1.34030223-8.04522667C638.09422222 218.61262222 645.62403555 208.07338667 656.77084445 206.21539555A20.45952 20.45952 0 0 1 660.13184 205.93777778c11.61784889 0 21.03637333 9.41852445 21.03637333 21.03523555 0 0.96597333-0.06712889 1.92967111-0.19911111 2.88654222l-1.06154667 7.6652089 11.9808-4.33834667c1.17191111-0.42439111 2.37795555-0.73955555 3.60675556-0.94435556 11.13088-1.85116445 21.65646222 5.67296 23.50648889 16.80497778 0.10581333 0.63715555 0.18545778 1.28 0.23552 1.92512 0.91249778 11.58030222-7.10314667 21.80437333-18.26702222 23.90129778 0.41415111 0.34702222 0.81806222 0.70769778 1.20832 1.08088889 9.68704 9.27175111 10.02382222 24.63971555 0.75320889 34.32675555a20.88391111 20.88391111 0 0 1-4.12330667 3.33368889c-9.81674667 6.05639111-22.68387555 3.00714667-28.73912889-6.8096l-4.68878222-7.60149333-5.17006222 8.77226667c-6.40796445 10.87488-20.41856 14.49528889-31.29230222 8.08732444a22.85454222 22.85454222 0 0 1-1.64522667-1.06723556c-9.03281778-6.42503111-11.14680889-18.95765333-4.72177778-27.99047111a20.07267555 20.07267555 0 0 1 2.84444445-3.20853333l4.8787911-4.44074667z" fill="#FDEFA7" p-id="2007"></path><path d="M661.61777778 264.53333333m-18.77333333 0a18.77333333 18.77333333 0 1 0 37.54666666 0 18.77333333 18.77333333 0 1 0-37.54666666 0Z" fill="#F23649" p-id="2008"></path><path d="M667.30666667 249.74222222m-2.84444445 0a2.84444445 2.84444445 0 1 0 5.68888889 0 2.84444445 2.84444445 0 1 0-5.68888889 0Z" fill="#FFFFFF" p-id="2009"></path><path d="M662.18666667 265.10222222m-3.41333334 0a3.41333333 3.41333333 0 1 0 6.82666667 0 3.41333333 3.41333333 0 1 0-6.82666667 0Z" fill="#FFFFFF" p-id="2010"></path><path d="M674.39836957 256.70064811a2.64874667 2.64533333 51 1 0 3.33382086 4.116926 2.64874667 2.64533333 51 1 0-3.33382086-4.116926Z" fill="#FFFFFF" p-id="2011"></path><path d="M674.79501938 270.21993984a2.64192 2.65329778 13 1 0-1.19372345 5.17058787 2.64192 2.65329778 13 1 0 1.19372345-5.17058787Z" fill="#FFFFFF" p-id="2012"></path><path d="M665.05261397 278.64480882a2.65102222 2.64305778 64 1 0-4.75113016 2.31728014 2.65102222 2.64305778 64 1 0 4.75113016-2.31728014Z" fill="#FFFFFF" p-id="2013"></path><path d="M653.16966286 275.65549341a2.64305778 2.65102222 26 1 0-4.75113017-2.31728015 2.64305778 2.65102222 26 1 0 4.75113017 2.31728015Z" fill="#FFFFFF" p-id="2014"></path><path d="M647.06623715 264.77454905a2.65329778 2.64192 77 1 0-1.19372344-5.17058788 2.65329778 2.64192 77 1 0 1.19372344 5.17058788Z" fill="#FFFFFF" p-id="2015"></path><path d="M651.95001401 252.85768078a2.64533333 2.64874667 39 1 0 3.33382087-4.11692601 2.64533333 2.64874667 39 1 0-3.33382087 4.11692601Z" fill="#FFFFFF" p-id="2016"></path><path d="M317.44 448.31516445l6.14627555-6.85738667L522.24 620.05816889 516.09372445 626.91555555z" fill="#FC6275" p-id="2017"></path><path d="M368.17464889 403.14993778l7.70048-5.03352889 145.33063111 223.81226666-7.70048 5.03466667z" fill="#FC6275" p-id="2018"></path><path d="M429.54069333 373.75317333l8.74040889-2.87061333 82.45134223 253.80181333-8.7404089 2.86947556z" fill="#FC6275" p-id="2019"></path><path d="M496.31232 360.06229333l9.18528-0.50972444 13.95370667 266.49258666-9.18641778 0.50972445z" fill="#FC6275" p-id="2020"></path><path d="M563.67559111 364.45184l9.00551111 1.88529778-55.49624889 261.02328889-9.00437333-1.88529778z" fill="#FC6275" p-id="2021"></path><path d="M627.40593778 387.01511111l8.21020444 4.15061334-121.16195555 237.76597333-8.21020445-4.15061333z" fill="#FC6275" p-id="2022"></path><path d="M703.84071111 424.21816889l6.41137778 6.59797333-191.97155556 185.36675556-6.41024-6.59911111z" fill="#FC6275" p-id="2023"></path><path d="M514.27555555 638.86222222c-16.02332445 0-29.01333333-12.99000889-29.01333333-29.01333333s12.99000889-29.01333333 29.01333333-29.01333334 29.01333333 12.99000889 29.01333334 29.01333334-12.99000889 29.01333333-29.01333334 29.01333333z m0-14.79111111c7.85521778 0 14.22222222-6.36700445 14.22222223-14.22222222s-6.36700445-14.22222222-14.22222223-14.22222222-14.22222222 6.36700445-14.22222222 14.22222222 6.36700445 14.22222222 14.22222222 14.22222222z" fill="#FEE97D" p-id="2024"></path></svg>